<?xml version="1.0" standalone="no"?>
<!DOCTYPE svg PUBLIC "-//W3C//DTD SVG 20010904//EN"
 "http://www.w3.org/TR/2001/REC-SVG-20010904/DTD/svg10.dtd">
<svg version="1.0" xmlns="http://www.w3.org/2000/svg"
 width="2048.000000pt" height="2048.000000pt" viewBox="0 0 2048.000000 2048.000000"
 preserveAspectRatio="xMidYMid meet">

<g transform="translate(0.000000,2048.000000) scale(0.100000,-0.100000)"
fill="#000000" stroke="none">
<path d="M13468 19459 c-214 -18 -404 -77 -663 -204 -319 -157 -608 -370 -970
-716 -357 -340 -646 -672 -823 -944 -47 -71 -91 -137 -98 -145 -11 -13 -28
-15 -96 -9 -231 20 -544 30 -918 30 -790 0 -1294 -43 -1975 -167 -643 -117
-1207 -303 -1790 -589 -416 -204 -759 -430 -1150 -754 -183 -153 -669 -636
-866 -862 -321 -368 -640 -796 -859 -1154 -213 -348 -352 -599 -502 -905 -524
-1073 -874 -2196 -1008 -3235 -25 -195 -12 -175 -280 -465 -335 -364 -498
-586 -640 -875 -93 -188 -140 -326 -180 -525 -41 -207 -54 -356 -47 -550 13
-361 89 -648 271 -1023 266 -546 575 -954 1153 -1517 367 -359 618 -563 1041
-847 322 -216 689 -416 1135 -617 757 -342 1728 -621 2974 -856 735 -138 1745
-276 2523 -344 581 -51 791 -60 1480 -60 941 -1 1357 23 2250 130 1042 124
1796 250 2405 400 743 183 907 232 1275 384 329 136 382 166 419 243 11 23 23
62 26 86 3 25 17 69 32 99 l27 54 2 307 c2 266 13 523 29 696 29 298 35 358
37 360 28 18 337 283 433 371 72 65 167 150 210 189 195 169 669 648 873 880
296 337 586 732 762 1039 149 259 297 594 358 806 75 259 97 430 89 690 -14
483 -137 788 -407 1012 -165 136 -308 211 -546 288 -246 78 -434 117 -694 141
-139 13 -642 17 -677 5 -43 -14 -25 26 53 119 154 183 317 418 439 629 83 146
229 440 286 578 273 665 507 1979 469 2631 -20 326 -56 536 -125 722 -97 260
-224 444 -434 629 -168 149 -243 194 -396 238 -72 21 -100 23 -290 23 -235 0
-260 -3 -680 -80 -477 -88 -950 -216 -1278 -344 l-108 -43 -115 109 c-64 59
-168 154 -232 210 -78 68 -119 111 -124 130 -4 15 -23 188 -43 383 -68 669
-116 922 -257 1360 -114 353 -326 810 -496 1065 -351 528 -697 773 -1127 797
-38 3 -109 1 -157 -3z m302 -354 c196 -52 379 -194 579 -449 355 -454 658
-1214 760 -1911 26 -175 74 -625 68 -632 -3 -2 -43 20 -89 49 -307 198 -818
452 -1272 633 -574 228 -1131 382 -1796 494 -175 30 -550 84 -668 97 -34 4
-64 10 -67 13 -7 12 176 255 300 398 145 167 550 575 695 699 313 268 562 426
856 544 209 84 463 110 634 65z m4545 -3584 c87 -31 156 -81 283 -205 163
-159 245 -290 316 -508 51 -157 86 -447 86 -719 0 -487 -141 -1354 -317 -1949
-83 -281 -132 -401 -283 -698 -141 -279 -380 -659 -380 -607 0 39 -32 294 -60
486 -78 526 -217 1077 -385 1524 -141 375 -408 947 -598 1283 -189 331 -433
683 -661 952 l-55 64 27 12 c155 64 536 175 838 243 201 45 649 127 770 141
135 15 349 6 419 -19z m-14234 -3967 c96 -28 170 -75 257 -162 45 -46 106
-116 133 -155 283 -401 349 -1052 161 -1597 -38 -109 -132 -324 -179 -407
-118 -212 -283 -366 -453 -423 -85 -29 -227 -25 -311 8 -247 98 -449 404 -529
800 -86 431 -61 839 77 1237 123 355 336 614 571 695 71 24 197 26 273 4z
m8478 -654 c283 -25 515 -106 743 -259 538 -361 803 -1036 668 -1701 -103
-506 -449 -964 -897 -1189 -248 -124 -469 -176 -748 -175 -186 1 -292 18 -465
74 -534 174 -936 628 -1050 1188 -35 173 -45 327 -32 481 7 75 21 176 32 225
11 50 20 101 20 114 0 40 66 223 116 323 149 298 363 531 637 691 84 49 228
110 317 134 36 10 67 21 70 25 5 7 95 30 195 49 49 10 150 21 260 28 11 1 71
-3 134 -8z m6146 -930 c305 -27 665 -114 870 -213 146 -71 320 -227 382 -343
38 -71 74 -192 99 -329 25 -140 25 -432 0 -570 -46 -251 -122 -468 -265 -755
-205 -411 -466 -784 -861 -1235 -158 -180 -655 -680 -825 -830 -82 -72 -197
-175 -255 -228 -58 -54 -108 -97 -111 -97 -3 0 -4 12 -2 28 13 114 63 480 108
802 90 640 159 1296 190 1800 33 551 40 798 40 1437 l0 532 35 4 c79 8 483 6
595 -3z m-13126 -1842 c8 -13 16 -58 18 -103 4 -75 3 -78 -11 -55 -8 14 -20
50 -26 80 -6 30 -13 65 -16 78 -3 14 0 22 8 22 7 0 20 -10 27 -22z m-3940
-303 c151 -407 905 -868 2066 -1262 1733 -588 4145 -989 6450 -1073 348 -13
1162 -13 1470 0 1061 44 1910 173 2461 375 164 60 389 176 492 255 53 40 100
69 108 66 16 -6 19 -36 4 -36 -5 0 -10 -11 -10 -24 0 -18 -17 -36 -67 -74
-379 -279 -1016 -481 -1898 -603 -263 -36 -265 -37 -265 -49 0 -36 -103 -231
-271 -515 -108 -181 -222 -375 -253 -430 -218 -379 -430 -480 -676 -322 -83
53 -231 201 -344 342 -187 235 -516 762 -516 828 0 14 -10 17 -62 17 -234 0
-954 35 -1348 66 -2127 164 -4267 614 -5660 1191 -49 20 -86 30 -88 24 -2 -5
-14 -25 -27 -43 -13 -18 -53 -77 -89 -130 -117 -170 -254 -296 -367 -335 -53
-18 -89 1 -133 70 -97 152 -205 572 -206 798 l-1 64 -77 47 c-121 73 -313 219
-409 310 -177 170 -279 328 -317 493 -11 46 8 18 33 -50z m5658 -1 c10 -31
-107 -153 -137 -142 -15 5 21 69 67 116 39 41 62 50 70 26z"/>
<path d="M3819 11532 c-222 -74 -426 -314 -552 -652 -55 -147 -117 -416 -117
-506 0 -41 67 -144 141 -215 142 -137 348 -187 531 -130 179 57 347 228 438
449 64 153 83 249 84 432 1 233 -32 372 -127 530 -28 47 -41 57 -92 79 -82 33
-225 39 -306 13z"/>
<path d="M12008 10811 c-224 -48 -428 -146 -607 -289 -80 -64 -112 -107 -172
-224 -65 -129 -91 -232 -96 -389 -11 -277 66 -478 249 -655 240 -232 593 -286
915 -139 122 55 283 191 369 311 58 81 127 229 154 329 27 101 36 267 21 373
-47 321 -264 579 -561 670 -101 31 -172 34 -272 13z"/>
<path d="M2445 7016 c-16 -11 -17 -23 -12 -97 23 -317 163 -760 252 -801 46
-21 123 5 197 67 102 84 308 370 308 427 0 17 -25 32 -220 131 -91 46 -230
123 -310 171 -197 119 -194 118 -215 102z"/>
<path d="M12320 5391 c-22 -13 -192 -38 -360 -53 -198 -18 -1408 -17 -1462 1
-46 15 -78 7 -78 -20 0 -102 442 -733 674 -964 134 -133 267 -204 381 -205
107 0 257 110 362 265 105 156 317 528 447 781 31 62 69 124 83 139 21 21 25
30 17 43 -13 20 -42 26 -64 13z"/>
</g>
</svg>
